<svg width="1300" height="860" viewBox="0 0 1300 860" fill="none" xmlns="http://www.w3.org/2000/svg">
<g clip-path="url(#clip0_621_904)">
<rect width="1300" height="860" fill="url(#paint0_linear_621_904)"/>
<path fill-rule="evenodd" clip-rule="evenodd" d="M320 170C313.373 170 308 175.373 308 182V215.592H991.886V182C991.886 175.373 986.514 170 979.886 170H320ZM991.886 222.986H308V678C308 684.627 313.373 690 320 690H979.886C986.514 690 991.886 684.627 991.886 678V222.986Z" fill="url(#paint1_linear_621_904)"/>
<ellipse cx="342.514" cy="194.615" rx="6.17249" ry="6.13194" fill="#BDD99C"/>
<ellipse cx="369.672" cy="194.615" rx="6.17249" ry="6.13194" fill="#BDD99C"/>
<ellipse cx="396.835" cy="194.615" rx="6.17249" ry="6.13194" fill="#BDD99C"/>
<path d="M580.658 376.838C571.853 367.251 567.368 366.976 560 376.838V460.617L597.873 501.933V518H641.484V483.57C641.484 483.57 604.759 427.335 597.873 427.335C590.987 427.334 586.396 441.107 586.396 441.107L580.658 376.838Z" fill="white"/>
<path d="M719.525 376.838C728.33 367.251 732.814 366.976 740.183 376.838V460.617L702.31 501.933V518H658.699V483.57C658.699 483.57 695.424 427.335 702.31 427.335C709.196 427.334 713.786 441.107 713.786 441.107L719.525 376.838Z" fill="white"/>
<path d="M657.148 418.893C612.298 423.07 607.055 402.335 633.047 342C653.614 343.139 664.464 347.534 681.248 369.544C687.344 386.357 686.445 393.735 681.248 405.121C668.111 381.184 660.575 373.302 647.966 368.396C657.925 380.399 663.056 388.508 669.772 410.86C670.665 424.989 669.256 432.207 664.033 444.142H653.705L657.148 434.961C661.179 427.552 659.255 425.759 657.148 418.893Z" fill="white"/>
<circle cx="256.5" cy="795.158" r="188.5" fill="url(#paint2_linear_621_904)"/>
<circle cx="350.5" cy="646.158" r="94.5" fill="url(#paint3_linear_621_904)"/>
<rect x="14.2363" y="-84" width="411.46" height="407.021" transform="rotate(48.1601 14.2363 -84)" fill="url(#paint4_linear_621_904)"/>
<rect x="1046" y="540.705" width="372.526" height="368.508" transform="rotate(-30.0784 1046 540.705)" fill="url(#paint5_linear_621_904)"/>
<circle cx="1085" cy="116" r="39" fill="#B9D69A" fill-opacity="0.7"/>
</g>
<defs>
<linearGradient id="paint0_linear_621_904" x1="0" y1="430" x2="1300" y2="430" gradientUnits="userSpaceOnUse">
<stop stop-color="#C2DD95"/>
<stop offset="1" stop-color="#114922" stop-opacity="0.71"/>
</linearGradient>
<linearGradient id="paint1_linear_621_904" x1="349.896" y1="393.033" x2="991.886" y2="526.114" gradientUnits="userSpaceOnUse">
<stop stop-color="#114922" stop-opacity="0.62"/>
<stop offset="1" stop-color="#C2DD95"/>
</linearGradient>
<linearGradient id="paint2_linear_621_904" x1="344.638" y1="622.098" x2="177.369" y2="983.658" gradientUnits="userSpaceOnUse">
<stop stop-color="#114922" stop-opacity="0.59"/>
<stop offset="1" stop-color="#BDD99C"/>
</linearGradient>
<linearGradient id="paint3_linear_621_904" x1="343.286" y1="551.658" x2="346.172" y2="737.773" gradientUnits="userSpaceOnUse">
<stop stop-color="#114922" stop-opacity="0.55"/>
<stop offset="1" stop-color="#BDD99C"/>
</linearGradient>
<linearGradient id="paint4_linear_621_904" x1="126.869" y1="-79.8608" x2="262.956" y2="223.3" gradientUnits="userSpaceOnUse">
<stop stop-color="#114922"/>
<stop offset="1" stop-color="#FFE294" stop-opacity="0"/>
</linearGradient>
<linearGradient id="paint5_linear_621_904" x1="1059" y1="541.356" x2="1160.94" y2="847.928" gradientUnits="userSpaceOnUse">
<stop stop-color="#BDD99C"/>
<stop offset="1" stop-color="#BDD99C" stop-opacity="0"/>
</linearGradient>
<clipPath id="clip0_621_904">
<rect width="1300" height="860" fill="white"/>
</clipPath>
</defs>
</svg>
